<svg width="21" height="16" fill="none" xmlns="http://www.w3.org/2000/svg"><path d="M18.529 16c.457 0 .854-.151 1.19-.45l-5.764-5.77-.399.288c-.431.318-.781.566-1.05.744-.269.179-.627.36-1.073.546-.447.185-.863.278-1.249.278h-.023c-.386 0-.802-.092-1.249-.278a6.445 6.445 0 01-1.072-.546 26.608 26.608 0 01-1.05-.744l-.399-.289L.626 15.55c.337.299.733.45 1.19.45H18.53zM1.147 6.148A6.02 6.02 0 010 5.159v8.778l5.08-5.085c-1.016-.71-2.325-1.61-3.933-2.704zm18.063 0a334.627 334.627 0 00-3.943 2.706l5.079 5.083V5.16a6.265 6.265 0 01-1.136.989z" fill="#49A069"/><path d="M18.529 0H1.817C1.234 0 .785.197.47.59.156.985 0 1.477 0 2.068c0 .477.207.994.624 1.551.416.557.859.994 1.328 1.313.257.182 1.033.721 2.328 1.619a751.748 751.748 0 012.974 2.074l.17.12c.081.06.185.134.313.227.246.178.45.322.613.432.162.11.36.232.59.369.231.136.449.239.653.307.205.068.394.102.568.102h.022c.174 0 .364-.034.568-.102.204-.069.422-.17.653-.307.23-.137.427-.26.59-.37.163-.11.368-.253.614-.431a72.578 72.578 0 01.482-.347l1.15-.8 4.164-2.893a5.404 5.404 0 001.385-1.398c.37-.545.556-1.117.556-1.716 0-.5-.18-.928-.54-1.284A1.755 1.755 0 0018.53 0z" fill="#49A069"/></svg>