<svg width="30" height="30" fill="none" xmlns="http://www.w3.org/2000/svg"><circle cx="15" cy="15" r="15" fill="#49A069"/><path d="M17.836 9.082A1.04 1.04 0 0017.783 7h-5.218a1.04 1.04 0 00-.054 2.082C12.187 12.028 11 12.222 11 15.185v6.25c0 .863.702 1.565 1.565 1.565h5.218c.863 0 1.565-.702 1.565-1.565v-6.25c0-2.968-1.185-3.15-1.512-6.103zm-3.003 4.368a3.538 3.538 0 00-2.393-.563c.094-.268.204-.53.331-.784.424-.85.688-2.006.79-3.016h3.226c.101 1.01.365 2.167.79 3.016.177.354.322.723.436 1.102-.383.19-1.639 1.272-3.18.245z" fill="#fff"/></svg>