<svg width="30" height="30" fill="none" xmlns="http://www.w3.org/2000/svg"><circle cx="15" cy="15" r="15" fill="#49A069"/><path d="M23.722 14.443c-.063-.013-.123-.025-.175-.04-.598-.155-.87-.24-1.072-.63l-.764-1.546c-.246-.474-.88-.86-1.413-.86h-1.36V9.583a.583.583 0 00-.582-.582l-9.473.01c-.312 0-.547.248-.547.576v.528H5.909a.91.91 0 000 1.818h2.426v.871H6.747a.91.91 0 000 1.818h1.588v.871h-.75a.91.91 0 000 1.818h.75v.91c0 .321.261.582.582.582h.985a2.181 2.181 0 002.155 1.863c1.094 0 2.002-.81 2.156-1.863H18.2l.063-.002a2.181 2.181 0 002.155 1.864 2.18 2.18 0 002.155-1.862h1.415c.558 0 1.011-.453 1.011-1.01v-1.715c0-1.366-.77-1.527-1.278-1.634zm-3.303 3.252a.793.793 0 010 1.583.793.793 0 010-1.583zm-1.482-3.375v-2.109h1.04c.4 0 .892.3 1.075.653l.68 1.376c.014.028.03.054.045.08h-2.84zm-6.088 4.166a.793.793 0 01-1.583 0 .793.793 0 011.584 0z" fill="#fff"/></svg>