<svg width="30" height="30" fill="none" xmlns="http://www.w3.org/2000/svg"><circle cx="15" cy="15" r="15" fill="#49A069"/><path d="M12.652 15.827c0-.2-.162-.363-.363-.363h-1.267c-.2 0-.363.163-.363.363v1.267c0 .2.162.363.363.363h1.267c.2 0 .363-.162.363-.363v-1.267zm3.168 0c0-.2-.163-.363-.364-.363H14.19c-.2 0-.363.163-.363.363v1.267c0 .2.163.363.363.363h1.268c.2 0 .362-.162.362-.363v-1.267zm3.167 0c0-.2-.163-.363-.363-.363h-1.268c-.2 0-.363.163-.363.363v1.267c0 .2.163.363.363.363h1.268c.2 0 .363-.162.363-.363v-1.267zm-6.335 3.168a.362.362 0 00-.363-.363h-1.267c-.2 0-.363.162-.363.363v1.267c0 .2.162.363.363.363h1.267c.2 0 .363-.163.363-.363v-1.267zm3.168 0a.363.363 0 00-.364-.363H14.19c-.2 0-.363.162-.363.363v1.267c0 .2.163.363.363.363h1.268c.2 0 .362-.163.362-.363v-1.267zm3.167 0a.363.363 0 00-.363-.363h-1.268c-.2 0-.363.162-.363.363v1.267c0 .2.163.363.363.363h1.268c.2 0 .363-.163.363-.363v-1.267z" fill="#fff"/><path d="M21.253 8.782v1.935c0 .875-.71 1.58-1.585 1.58h-1a1.589 1.589 0 01-1.593-1.58V8.775H12.57v1.942c0 .875-.719 1.58-1.593 1.58h-1a1.58 1.58 0 01-1.584-1.58V8.782A1.44 1.44 0 007 10.215v11.342C7 22.35 7.642 23 8.434 23h12.777c.791 0 1.434-.652 1.434-1.443V10.215a1.44 1.44 0 00-1.392-1.433zm-.465 12.069a.62.62 0 01-.62.62H9.45a.62.62 0 01-.62-.62v-5.859a.62.62 0 01.62-.62h10.72a.62.62 0 01.62.62v5.859z" fill="#fff"/><path d="M9.973 11.26h.989c.3 0 .543-.244.543-.544V7.543c0-.3-.243-.543-.543-.543h-.989c-.3 0-.543.243-.543.543v3.173c0 .3.243.543.543.543zm8.683 0h.989c.3 0 .543-.244.543-.544V7.543c0-.3-.243-.543-.543-.543h-.989c-.3 0-.543.243-.543.543v3.173c0 .3.243.543.543.543z" fill="#fff"/></svg>